<svg width="180" height="180" viewBox="0 0 180 180" fill="none" xmlns="http://www.w3.org/2000/svg">
<g clip-path="url(#clip0_5_18)">
<path d="M107.402 134.145C101.602 132.826 95.8008 130.717 90 128.08C83.9355 130.717 78.1348 132.826 72.5977 134.145C72.5977 134.145 72.5977 134.408 72.5977 134.672C77.8711 145.482 84.1992 149.438 90 149.438C95.8008 149.438 101.865 145.482 107.139 134.672C107.139 134.408 107.139 134.145 107.402 134.145ZM79.7168 123.07C77.6074 122.016 75.498 120.961 73.6523 119.643C71.2793 118.324 68.9062 116.742 66.7969 115.424C67.5879 119.115 68.3789 122.807 69.4336 126.234C72.5977 125.443 76.0254 124.389 79.7168 123.07ZM110.303 126.234C111.357 122.807 112.148 119.115 112.939 115.424C110.83 116.742 108.457 118.324 106.084 119.643C104.238 120.961 102.129 122.016 100.02 123.07C103.711 124.389 107.139 125.443 110.303 126.234ZM101.865 112.523C106.348 109.623 110.566 106.723 114.521 103.822C115.049 99.6035 115.312 95.1211 115.312 90.375C115.312 85.8926 115.049 81.4102 114.521 77.1914C110.566 74.291 106.348 71.3906 101.865 68.4902C97.6465 66.1172 93.6914 64.0078 90 62.1621C86.0449 64.0078 82.0898 66.1172 77.8711 68.4902C73.3887 71.3906 69.1699 74.291 65.2148 77.1914C64.6875 81.4102 64.6875 85.8926 64.6875 90.375C64.6875 95.1211 64.6875 99.6035 65.2148 103.822C69.1699 106.723 73.3887 109.623 77.8711 112.523C82.0898 114.896 86.0449 117.006 90 118.852C93.6914 117.006 97.6465 114.896 101.865 112.523ZM118.74 127.553C130.078 128.344 136.143 125.18 138.779 120.17C141.68 114.896 141.152 107.514 134.561 97.4941L134.297 97.2305C130.869 100.922 126.914 104.613 122.695 108.305C121.904 115.16 120.586 121.488 118.74 127.553ZM123.486 96.1758C125.596 94.3301 127.441 92.4844 129.023 90.375C127.441 88.5293 125.596 86.6836 123.486 84.8379C123.486 86.6836 123.75 88.5293 123.75 90.375C123.75 92.4844 123.486 94.3301 123.486 96.1758ZM146.162 124.125C140.889 133.881 129.814 137.309 115.84 135.727C110.039 149.438 101.074 157.875 90 157.875C78.6621 157.875 69.6973 149.438 63.8965 135.727C49.9219 137.309 38.8477 133.881 33.5742 124.125C28.0371 114.369 31.2012 102.504 39.9023 90.375C31.2012 78.5098 28.0371 66.6445 33.5742 56.625C38.8477 47.1328 49.9219 43.7051 63.8965 45.2871C69.6973 31.5762 78.6621 22.875 90 22.875C101.074 22.875 110.039 31.5762 115.84 45.2871C129.814 43.7051 140.889 47.1328 146.162 56.625C151.699 66.6445 148.799 78.5098 140.098 90.375C148.799 102.504 151.699 114.369 146.162 124.125ZM138.779 60.8438C136.143 55.834 130.078 52.6699 118.74 53.4609C120.586 59.2617 121.904 65.8535 122.695 72.709C126.914 76.4004 130.869 80.0918 134.297 83.7832L134.561 83.5195C141.152 73.5 141.68 66.1172 138.779 60.8438ZM107.139 46.3418C101.865 35.5312 95.8008 31.3125 90 31.3125C84.1992 31.3125 77.8711 35.5312 72.5977 46.3418C72.5977 46.6055 72.5977 46.6055 72.5977 46.8691C78.1348 48.1875 83.9355 50.2969 90 52.9336C95.8008 50.2969 101.602 48.1875 107.402 46.8691C107.139 46.6055 107.139 46.6055 107.139 46.3418ZM110.303 54.7793C107.139 55.5703 103.711 56.625 100.02 57.9434C102.129 58.998 104.238 60.0527 106.084 61.3711C108.457 62.6895 110.83 64.0078 112.939 65.5898C112.412 61.8984 111.357 58.207 110.303 54.7793ZM69.4336 54.7793C68.3789 58.207 67.5879 61.6348 66.7969 65.5898C68.9062 64.0078 71.2793 62.6895 73.6523 61.3711C75.7617 60.0527 77.6074 58.998 79.7168 57.9434C76.0254 56.625 72.5977 55.5703 69.4336 54.7793ZM60.9961 53.4609C49.9219 52.6699 43.5938 55.834 40.957 60.8438C38.0566 66.1172 38.584 73.5 45.1758 83.5195L45.4395 83.7832C48.8672 80.0918 52.8223 76.4004 57.041 72.709C58.0957 65.8535 59.1504 59.2617 60.9961 53.4609ZM45.1758 97.4941C38.584 107.514 38.0566 114.896 40.957 120.17C43.5938 125.18 49.6582 128.344 60.9961 127.553C59.1504 121.488 57.832 115.16 57.041 108.305C52.8223 104.613 48.8672 100.922 45.4395 97.2305L45.1758 97.4941ZM56.25 84.5742C54.1406 86.6836 52.2949 88.5293 50.7129 90.375C52.2949 92.4844 54.1406 94.3301 56.25 96.1758C56.25 94.3301 56.25 92.4844 56.25 90.375C56.25 88.5293 56.25 86.6836 56.25 84.5742ZM81.5625 90.375L90 81.9375L98.4375 90.375L90 98.8125L81.5625 90.375Z" fill="white"/>
</g>
<defs>
<clipPath id="clip0_5_18">
<rect width="180" height="180" fill="white"/>
</clipPath>
</defs>
</svg>
